<svg class="hidden-xs" viewBox="0 0 396 29" version="1.1" xmlns="http://www.w3.org/2000/svg" xmlns:xlink="http://www.w3.org/1999/xlink">
    <g id="Symbols" stroke="none" stroke-width="1" fill-rule="evenodd">
        <g transform="translate(1.000000, -16.000000)">
            <path d="M-1,16.4011858 L-1,44.6847826 L27.5701581,44.6847826 L27.5701581,16.4011858 L-1,16.4011858 Z M13.6719368,36.1166008 C12.9077696,36.1166008 12.1865976,35.9780976 11.5083992,35.701087 C10.8302008,35.4240763 10.2379801,35.0372225 9.73171937,34.5405138 C9.2254586,34.0438052 8.82905282,33.4563604 8.54249012,32.7781621 C8.25592742,32.0999637 8.11264822,31.3692398 8.11264822,30.5859684 L8.11264822,30.5573123 C8.11264822,29.7740409 8.25592742,29.043317 8.54249012,28.3651186 C8.82905282,27.6869202 9.2254586,27.0994755 9.73171937,26.6027668 C10.2379801,26.1060581 10.8397528,25.7096523 11.5370553,25.4135375 C12.2343579,25.1174228 12.9841857,24.9693676 13.7865613,24.9693676 C14.3405825,24.9693676 14.8468357,25.0266793 15.305336,25.1413043 C15.7638363,25.2559294 16.179346,25.4087606 16.5518775,25.5998024 C16.924409,25.7908442 17.2635031,26.0248669 17.56917,26.3018775 C17.8748368,26.5788881 18.1422913,26.8797744 18.3715415,27.2045455 L16.1363636,28.9525692 C15.9835302,28.7615274 15.8211471,28.5848164 15.6492095,28.4224308 C15.4772719,28.2600453 15.2957849,28.126318 15.1047431,28.0212451 C14.9137013,27.9161721 14.7083344,27.8349805 14.4886364,27.777668 C14.2689383,27.7203554 14.0253637,27.6916996 13.7579051,27.6916996 C13.3949257,27.6916996 13.0510556,27.7633392 12.7262846,27.9066206 C12.4015135,28.0499019 12.129283,28.2504928 11.909585,28.5083992 C11.6898869,28.7663056 11.5131759,29.067192 11.3794466,29.4110672 C11.2457174,29.7549424 11.1788538,30.1274683 11.1788538,30.5286561 L11.1788538,30.5573123 C11.1788538,30.9585 11.2457174,31.3310259 11.3794466,31.6749012 C11.5131759,32.0187764 11.6898869,32.3196627 11.909585,32.5775692 C12.129283,32.8354756 12.4015135,33.0360665 12.7262846,33.1793478 C13.0510556,33.3226292 13.3949257,33.3942688 13.7579051,33.3942688 C14.0444678,33.3942688 14.3023704,33.3656129 14.5316206,33.3083004 C14.7608707,33.2509879 14.9710135,33.1650203 15.1620553,33.0503953 C15.3530971,32.9357702 15.5345841,32.797267 15.7065217,32.6348814 C15.8784594,32.4724959 16.0408425,32.2957849 16.1936759,32.1047431 L18.4575099,33.68083 C18.2091555,34.0438095 17.9321491,34.3733516 17.6264822,34.6694664 C17.3208153,34.9655812 16.9721693,35.2187078 16.5805336,35.4288538 C16.1888979,35.6389997 15.7542843,35.8061588 15.2766798,35.930336 C14.7990753,36.0545131 14.2641663,36.1166008 13.6719368,36.1166008 L13.6719368,36.1166008 Z M32.1551383,16.4011858 L32.1551383,44.6847826 L60.8685771,44.6847826 L60.8685771,16.4011858 L32.1551383,16.4011858 Z M48.0306324,35.8586957 L45.8527668,32.6205534 L44.534585,32.6205534 L44.534585,35.8586957 L41.5256917,35.8586957 L41.5256917,25.1126482 L46.6551383,25.1126482 C47.0754303,25.1126482 47.4622841,25.1413041 47.8157115,25.1986166 C48.1691388,25.2559291 48.489129,25.3323447 48.7756917,25.4278656 C49.0622544,25.5233865 49.3249329,25.6427858 49.5637352,25.7860672 C49.8025374,25.9293485 50.0079043,26.0965076 50.1798419,26.2875494 C50.3517795,26.4403828 50.4950587,26.6075419 50.6096838,26.7890316 C50.7243089,26.9705213 50.8246043,27.1663362 50.9105731,27.3764822 C50.9965419,27.5866282 51.0586296,27.806323 51.0968379,28.0355731 C51.1350463,28.2648233 51.1541502,28.5131739 51.1541502,28.7806324 L51.1541502,28.8092885 C51.1541502,29.2295805 51.1016145,29.6116584 50.9965415,29.9555336 C50.8914685,30.2994088 50.7386374,30.6050711 50.5380435,30.8725296 C50.3374496,31.1399882 50.1034269,31.3787868 49.8359684,31.5889328 C49.5685099,31.7990788 49.2628476,31.9710138 48.9189723,32.1047431 L51.4980237,35.8586957 L50.9535573,35.8586957 L49.7643281,35.8586957 L48.5750988,35.8586957 L48.0306324,35.8586957 L48.0306324,35.8586957 Z M46.5118577,27.6916996 L44.534585,27.6916996 L44.534585,30.270751 L46.5118577,30.270751 C46.760212,30.270751 46.9846828,30.2420951 47.1852767,30.1847826 C47.3858706,30.1274701 47.5578056,30.0415025 47.701087,29.9268775 C47.8443683,29.8122524 47.9494397,29.6785251 48.0163043,29.5256917 C48.083169,29.3728583 48.1166008,29.2009232 48.1166008,29.0098814 L48.1166008,28.9812253 C48.1166008,28.7710793 48.083169,28.5848164 48.0163043,28.4224308 C47.9494397,28.2600453 47.8443683,28.126318 47.701087,28.0212451 C47.5578056,27.9161721 47.3858706,27.8349805 47.1852767,27.777668 C46.9846828,27.7203554 46.760212,27.6916996 46.5118577,27.6916996 L46.5118577,27.6916996 Z M65.2529644,16.4867011 L65.2529644,44.9717969 L94.5108696,45 L94.5108696,16.458498 L65.2529644,16.4867011 Z M84.3666008,35.9733202 L75.3972332,36.0019763 L75.3972332,24.9980237 L84.2806324,25.0266798 L84.2806324,27.5770751 L78.4347826,27.6057312 L78.4347826,29.2391304 L83.736166,29.2677866 L83.736166,31.6462451 L78.4347826,31.6749012 L78.4347826,33.3942688 L84.3666008,33.4229249 L84.3666008,35.9733202 Z M98.9525692,16.4298419 L98.9525692,44.8280632 L127.064229,44.7988169 L127.064229,16.4590883 L98.9525692,16.4298419 Z M115.802372,35.7727273 L115.028656,33.8527668 L110.93083,33.8814229 L110.157115,35.7440711 L107.062253,35.7727273 L111.589921,25.1413043 L114.426877,25.1699605 L118.954545,35.7440711 L115.802372,35.7727273 Z M111.790514,31.5889328 L114.168972,31.6175889 L112.994071,28.6086957 L111.790514,31.5889328 Z M131.935771,16.4298419 L131.935771,44.3695652 L160.162055,44.3695652 L160.162055,16.4298419 L131.935771,16.4298419 Z M150.73419,27.6916996 L147.55336,27.6916996 L147.55336,35.6867589 L144.573123,35.6867589 L144.573123,27.6916996 L141.363636,27.6916996 L141.363636,25.1126482 L150.73419,25.1126482 L150.73419,27.6916996 Z M165.062253,16.3725296 L165.062253,44.6561265 L193.603755,44.6561265 L193.603755,16.3725296 L165.062253,16.3725296 Z M180.851779,35.8586957 L177.842885,35.8586957 L177.842885,25.1699605 L180.851779,25.1699605 L180.851779,35.8586957 Z M198.246047,16.2865613 L198.246047,44.8280632 L227.074111,44.8280632 L227.074111,16.2865613 L198.246047,16.2865613 Z M214.064229,36.0019763 L211.255929,36.0019763 L206.842885,25.1126482 L210.224308,25.1126482 L212.688735,31.9614625 L215.181818,25.1126482 L218.505929,25.1126482 L214.064229,36.0019763 Z M231.315217,16.4867011 L231.315217,44.9717969 L260.573123,45 L260.573123,16.458498 L231.315217,16.4867011 Z M250.428854,35.9733202 L241.459486,36.0019763 L241.459486,24.9980237 L250.342885,25.0266798 L250.342885,27.5770751 L244.497036,27.6057312 L244.497036,29.2391304 L249.798419,29.2677866 L249.798419,31.6462451 L244.497036,31.6749012 L244.497036,33.3942688 L250.428854,33.4229249 L250.428854,35.9733202 Z M265.186759,16.5158103 L265.186759,44.5988142 L293.58498,44.6274704 L293.58498,16.4871542 L265.186759,16.5158103 Z M283.469368,35.8586957 L275.302372,35.8873518 L275.302372,25.2272727 L278.282609,25.2559289 L278.282609,33.2796443 L283.469368,33.3083004 L283.469368,35.8586957 Z M298.571146,16.3725296 L298.571146,44.6561265 L327.112648,44.6561265 L327.112648,16.3725296 L298.571146,16.3725296 Z M314.360672,35.8586957 L311.351779,35.8586957 L311.351779,25.1699605 L314.360672,25.1699605 L314.360672,35.8586957 Z M331.754941,16.2865613 L331.754941,44.8280632 L360.583004,44.8280632 L360.583004,16.2865613 L331.754941,16.2865613 Z M347.573123,36.0019763 L344.764822,36.0019763 L340.351779,25.1126482 L343.733202,25.1126482 L346.197628,31.9614625 L348.690711,25.1126482 L352.014822,25.1126482 L347.573123,36.0019763 Z M364.824111,16.0286561 L364.824111,44.9713439 L394.082016,45 L394.082016,16 L364.824111,16.0286561 Z M383.937747,35.9733202 L374.968379,36.0019763 L374.968379,24.9980237 L383.851779,25.0266798 L383.851779,27.5770751 L378.005929,27.6057312 L378.005929,29.2391304 L383.307312,29.2677866 L383.307312,31.6462451 L378.005929,31.6749012 L378.005929,33.3942688 L383.937747,33.4229249 L383.937747,35.9733202 Z" id="creativelive"></path>
        </g>
    </g>
</svg>
